# xmcd
#
# Track frame offsets:
# 150
# 23471
# 37459
# 59773
# 77696
# 93785
# 117826
# 131925
# 148216
# 164858
# 182706
#
# Disc length: 2621 seconds
#
# Revision: 0
# Processed by: cddbd v1.5.2PL0 Copyright (c) Steve Scherf et al.
# Submitted via: Audion 3.0.2 (http://www.panic.com/audion/)
#
DISCID=a30a3b0b
DTITLE=Elan - London Express
DYEAR=1900
DGENRE=
TTITLE0=be free
TTITLE1=london express
TTITLE2=get your blue
TTITLE3=glow
TTITLE4=like me
TTITLE5=someday I will be
TTITLE6=sweet little you
TTITLE7=the big time
TTITLE8=this fool's life
TTITLE9=whatever it takes
TTITLE10=don't worry
EXTD=
EXTT0=
EXTT1=
EXTT2=
EXTT3=
EXTT4=
EXTT5=
EXTT6=
EXTT7=
EXTT8=
EXTT9=
EXTT10=
PLAYORDER=
